<svg xmlns="http://www.w3.org/2000/svg" viewBox="0 0 149.12 149.12"><defs><style>.cls-1{fill:#fff;}.cls-2{fill:#283b56;}.cls-3{fill:none;stroke:#283b56;stroke-miterlimit:1;stroke-width:1.93px;}</style></defs><title>emblema</title><g id="Capa_2" data-name="Capa 2"><g id="Capa_1-2" data-name="Capa 1"><path class="cls-1" d="M74.56,0A74.56,74.56,0,1,1,0,74.56,74.71,74.71,0,0,1,74.56,0"/><path class="cls-2" d="M89.44,134.31v-9.1a52.28,52.28,0,0,1-14.88,2.15A52.8,52.8,0,1,1,89.44,23.91v-9.1a61.58,61.58,0,1,0,0,119.5"/><path class="cls-2" d="M80.89,27.82a46,46,0,0,1,8.55,2v82.06a40.27,40.27,0,0,0,14.2-9.64v9.44a46.88,46.88,0,0,1-22.75,9.64Z"/><path class="cls-2" d="M45.23,71.06V47.17A40.06,40.06,0,0,0,34.55,71.06ZM52,116a49.79,49.79,0,0,1-6.77-4.51V78.06H34.55a39.91,39.91,0,0,0,7.7,20.3H33.86A47.09,47.09,0,0,1,52,33.16V116Z"/><path class="cls-2" d="M76.94,38V56.27H69.83V42.44c0-1.64-2.33-2.4-3.31-2.4s-3.21.36-3.21,2.46c0,.07,0,7.79,0,7.86v11a6.94,6.94,0,0,0,.46,1.49A9.55,9.55,0,0,0,64.94,65L75.28,76a9.69,9.69,0,0,1,1.15,2,7.5,7.5,0,0,1,.51,1.86v33.9c-.48,4.19-3,5.84-7.07,6.27a13.4,13.4,0,0,1-3.59,0c-5.47-1.77-9.77-5.7-10.59-11.17V90.25h7.84v16.3c0,.11,0,.23,0,.35,0,1.86,2,3,3.35,3s3.32-.14,3.35-3a1.61,1.61,0,0,0,0-.22V85.18a8.46,8.46,0,0,0-.46-1.48A9.54,9.54,0,0,0,69,82.24L57.12,69.35a10.27,10.27,0,0,1-.92-1.71,6.66,6.66,0,0,1-.51-1.91V36.54a8.73,8.73,0,0,1,4.72-7,15.18,15.18,0,0,1,4.12-1.1C71,27.83,76.24,31.92,76.94,38"/><path class="cls-2" d="M127.17,70.17A52.41,52.41,0,0,0,118,44.61V70.17ZM109,23.54a61.51,61.51,0,0,1-5.34,105.27V118.58A52.85,52.85,0,0,0,127.17,79H118v14a47.24,47.24,0,0,1-9,13.82Z"/><path class="cls-3" d="M74.56,5.79A68.77,68.77,0,1,1,5.79,74.56,68.9,68.9,0,0,1,74.56,5.79Z"/><path class="cls-2" d="M95.65,81.2a3.19,3.19,0,0,0,2.92-1.7,9.81,9.81,0,0,0,1-4.94,10.08,10.08,0,0,0-1.06-5.14,3.39,3.39,0,0,0-3.08-1.77H91.56V81.2Zm1-9.62a5.79,5.79,0,0,1,.56,2.89,5.77,5.77,0,0,1-.53,2.87,1.87,1.87,0,0,1-1.72.89H93.85V70.62H95a1.83,1.83,0,0,1,1.69,1"/><polygon class="cls-2" points="100.52 81.19 100.52 67.65 106.56 67.65 106.56 70.56 102.79 70.56 102.79 72.72 106.27 72.72 106.27 75.61 102.79 75.61 102.79 78.23 106.69 78.23 106.69 81.19 100.52 81.19"/></g></g></svg>